<?xml version="1.0" encoding="UTF-8"?><svg id="Layer_1" xmlns="http://www.w3.org/2000/svg" viewBox="0 0 232.44 232.44"><defs><style>.cls-1{fill:#81be22;}.cls-1,.cls-2,.cls-3{stroke-width:0px;}.cls-2{fill:#083507;}.cls-3{fill:#0d330f;}</style></defs><path class="cls-3" d="M65.29,186.61c-.51-.37-1.08-.59-1.69-.65s-1.2.03-1.77.27-1.06.65-1.46,1.21c-.41.56-.63,1.14-.68,1.75s.05,1.2.3,1.76.63,1.03,1.14,1.4c.51.37,1.08.59,1.69.66.61.06,1.2-.02,1.76-.26.57-.24,1.05-.63,1.46-1.19.41-.56.64-1.15.69-1.76.06-.62-.04-1.21-.29-1.77-.25-.56-.63-1.03-1.14-1.4Z"/><polygon class="cls-3" points="31.31 166.05 33.66 169.31 46.96 166.38 39.94 178.01 42.5 181.56 52.27 165.19 49.93 161.95 31.31 166.05"/><polygon class="cls-3" points="38.94 139.42 35.91 140.61 39.4 149.47 35.63 150.96 32.66 143.39 29.72 144.55 32.7 152.11 29.16 153.5 25.79 144.94 22.77 146.13 27.61 158.43 43.9 152.03 38.94 139.42"/><path class="cls-3" d="M28.93,135.92c1.31-.15,2.48-.53,3.52-1.13,1.04-.6,1.91-1.37,2.62-2.32.71-.95,1.22-2.02,1.53-3.22.3-1.2.38-2.49.22-3.86-.14-1.24-.48-2.46-1.01-3.67-.53-1.21-1.2-2.24-2.02-3.1l-7.05.82.43,3.68,5.1-.59c.17.25.33.5.45.77.34.72.56,1.48.66,2.28.1.83.05,1.6-.13,2.32-.18.72-.5,1.36-.95,1.92-.45.56-.99,1.02-1.64,1.37-.65.35-1.38.58-2.19.67-.83.1-1.6.05-2.31-.15-.71-.19-1.34-.52-1.9-.96-.55-.45-1.01-1-1.35-1.67s-.57-1.42-.67-2.26c-.1-.88-.04-1.71.2-2.49.24-.78.65-1.53,1.24-2.23l-2.68-2.31c-.88.96-1.5,2.08-1.87,3.38-.37,1.29-.46,2.71-.29,4.25.16,1.39.53,2.64,1.1,3.75.57,1.11,1.32,2.04,2.23,2.81.91.77,1.94,1.32,3.09,1.67,1.15.34,2.38.44,3.68.29Z"/><path class="cls-3" d="M36.15,110.29l-3.47-2.11,1.24-8.02,3.94-.96.65-4.2-18.49,5.06-.61,3.95,16.1,10.39.63-4.1ZM29.84,106.44l-6.19-3.78,7.04-1.72-.85,5.49Z"/><polygon class="cls-3" points="41.7 87.27 32.06 82.81 45.36 79.35 46.75 76.33 30.87 68.99 29.19 72.62 38.83 77.07 25.54 80.52 24.13 83.56 40.02 90.9 41.7 87.27"/><path class="cls-3" d="M90.45,35.37c.89-.86,1.46-1.84,1.71-2.94.25-1.1.15-2.25-.3-3.47-.46-1.24-1.14-2.19-2.04-2.87-.91-.68-1.98-1.06-3.22-1.14s-2.59.14-4.06.69l-7.11,2.62,6.06,16.42,3.8-1.4-1.69-4.57,3.31-1.22c.06-.02.11-.05.17-.07l4.85,3.42,4.11-1.51-5.61-3.91s.02-.02.03-.02ZM82.49,35.67l-2.11-5.72,3.1-1.14c1.17-.43,2.14-.51,2.9-.22.76.29,1.31.88,1.65,1.79.33.89.3,1.7-.09,2.42-.39.72-1.17,1.3-2.35,1.73l-3.1,1.14Z"/><path class="cls-3" d="M115.52,19.48l-3.99.33.8,9.62c.14,1.66-.1,2.89-.72,3.67s-1.54,1.23-2.77,1.33c-1.23.1-2.21-.18-2.96-.86s-1.18-1.84-1.32-3.5l-.8-9.62-4.04.34.81,9.77c.21,2.56,1.08,4.47,2.58,5.73,1.51,1.26,3.5,1.79,5.98,1.58,2.47-.21,4.35-1.06,5.63-2.55,1.28-1.5,1.81-3.52,1.6-6.08l-.81-9.77Z"/><polygon class="cls-3" points="129.43 27.61 135.93 39.73 139.19 40.38 142.59 23.21 138.67 22.43 136.6 32.85 130.13 20.74 126.84 20.09 123.45 37.26 127.37 38.03 129.43 27.61"/><polygon class="cls-3" points="153.89 35.01 156.72 48.46 159.66 49.99 167.76 34.48 164.21 32.63 159.3 42.04 156.49 28.6 153.52 27.06 145.43 42.57 148.98 44.42 153.89 35.01"/><polygon class="cls-3" points="175.01 63.21 177.21 60.82 170.2 54.37 172.94 51.39 178.92 56.89 181.05 54.57 175.07 49.07 177.64 46.27 184.41 52.5 186.61 50.1 176.87 41.15 165.03 54.04 175.01 63.21"/><path class="cls-3" d="M180.97,71.06l4.09-2.66,1.92,2.96c.04.05.07.1.11.15l-2.26,5.48,2.38,3.67,2.58-6.34s.02.02.03.02c1.04.68,2.12,1.02,3.24,1.02,1.12,0,2.23-.35,3.32-1.06,1.1-.72,1.89-1.59,2.35-2.63.46-1.03.59-2.17.4-3.39-.19-1.23-.71-2.5-1.57-3.81l-4.13-6.35-14.67,9.54,2.21,3.4ZM195.53,68.87c-.11.81-.57,1.48-1.38,2-.8.52-1.59.67-2.38.44-.79-.22-1.53-.86-2.21-1.91l-1.8-2.77,5.11-3.32,1.8,2.77c.68,1.05.97,1.98.86,2.78Z"/><path class="cls-3" d="M198.7,82.06c-.45.55-.75,1.17-.9,1.85s-.23,1.41-.21,2.17c.01.76.06,1.51.14,2.25.08.74.14,1.42.17,2.04.03.62-.03,1.15-.17,1.59-.14.44-.43.73-.88.88-.35.12-.69.11-1.04-.02-.34-.13-.67-.4-.98-.82-.31-.42-.59-1-.85-1.76-.34-.99-.51-2.03-.52-3.11,0-1.08.12-2.06.39-2.94l-3.33-.32c-.32.93-.45,2.07-.39,3.41s.31,2.67.76,3.99c.54,1.58,1.22,2.8,2.04,3.68.83.87,1.71,1.44,2.66,1.7s1.89.23,2.82-.09c.87-.29,1.53-.72,1.97-1.26.45-.55.75-1.16.9-1.85.15-.69.22-1.41.19-2.16-.03-.76-.08-1.5-.16-2.24s-.13-1.42-.17-2.04c-.04-.62.02-1.15.16-1.59.14-.44.43-.73.85-.87.36-.12.72-.13,1.06-.02.35.11.69.37,1.02.79.33.41.63.99.88,1.73.25.74.4,1.53.45,2.38.05.85-.02,1.73-.2,2.65l3.31.19c.23-.94.29-1.96.19-3.05-.1-1.09-.33-2.16-.68-3.2-.53-1.56-1.2-2.78-2.02-3.66-.82-.88-1.7-1.44-2.66-1.68-.96-.25-1.91-.21-2.85.11-.88.3-1.55.72-2,1.27Z"/><path class="cls-3" d="M207.13,114.11c-.52-.32-1.13-.48-1.82-.48-.69,0-1.3.16-1.83.47-.53.32-.95.74-1.26,1.27s-.46,1.12-.46,1.75c0,.63.15,1.22.46,1.75.31.53.73.96,1.26,1.28.53.32,1.14.48,1.83.48s1.3-.16,1.82-.47c.52-.32.94-.74,1.25-1.27.31-.53.46-1.11.46-1.75,0-.63-.15-1.22-.46-1.75-.31-.53-.72-.96-1.25-1.28Z"/><path class="cls-3" d="M93.36,194.62c-.8-.7-1.82-1.24-3.06-1.63-1.49-.47-2.9-.61-4.22-.41-1.32.2-2.45.67-3.39,1.42l2.24,2.7c.59-.44,1.23-.7,1.91-.79.68-.08,1.37-.01,2.07.21.87.28,1.48.66,1.82,1.16.34.5.41,1.08.19,1.75-.08.25-.21.52-.39.79-.18.27-.45.56-.81.85-.35.29-.86.58-1.51.89l-8.36,4.05-.79,2.5,12.61,3.98.99-3.15-7.19-2.27,4.99-2.41c1.01-.48,1.81-.96,2.4-1.42.59-.46,1.04-.94,1.34-1.43.3-.49.54-1,.71-1.54.32-1.02.34-1.97.05-2.87-.29-.89-.83-1.69-1.63-2.39Z"/><path class="cls-3" d="M111.48,197.9c-1.06-.8-2.31-1.27-3.75-1.4-1.43-.13-2.74.11-3.93.72-1.19.61-2.17,1.55-2.94,2.84s-1.23,2.89-1.4,4.79c-.17,1.91.01,3.57.54,4.97.53,1.4,1.33,2.51,2.39,3.31,1.07.81,2.31,1.27,3.74,1.4,1.44.13,2.76-.11,3.94-.72,1.18-.61,2.16-1.55,2.92-2.84s1.23-2.89,1.4-4.79c.17-1.91-.01-3.57-.54-4.97-.53-1.4-1.32-2.5-2.38-3.31ZM110.34,205.82c-.12,1.31-.36,2.37-.72,3.17-.36.81-.82,1.38-1.36,1.71-.54.34-1.15.48-1.83.42-.66-.06-1.23-.3-1.7-.73-.47-.43-.82-1.07-1.03-1.92-.22-.86-.27-1.94-.15-3.25.12-1.31.36-2.37.72-3.17.36-.8.82-1.37,1.36-1.71.54-.34,1.14-.48,1.81-.42.68.06,1.26.3,1.73.73.47.43.82,1.07,1.03,1.92.22.86.27,1.94.15,3.25Z"/><polygon class="cls-3" points="140.02 193.24 137.47 201.94 130.98 195.62 126.83 196.72 136.25 205.88 137.84 211.91 141.75 210.88 140.17 204.88 143.87 192.22 140.02 193.24"/><polygon class="cls-3" points="156.9 201.53 155.01 197.95 162.19 194.15 160.72 191.36 153.53 195.16 151.76 191.81 159.89 187.5 158.37 184.63 146.68 190.82 154.86 206.28 166.84 199.95 165.32 197.07 156.9 201.53"/><path class="cls-3" d="M166.65,178.16l5.9,18.23,3.09-2.77-1.35-3.83,6.03-5.42,3.66,1.75,3.16-2.84-17.52-7.78-2.97,2.67ZM173.18,186.64l-2.41-6.84,6.54,3.13-4.13,3.72Z"/><path class="cls-3" d="M193.73,164.6c.22-1.22.11-2.35-.33-3.39-.44-1.04-1.19-1.92-2.27-2.65-1.09-.74-2.21-1.11-3.34-1.13-1.13-.02-2.23.3-3.28.95-1.06.66-2.02,1.63-2.9,2.93l-4.23,6.28,14.51,9.78,2.26-3.36-4.04-2.72,1.97-2.92c.04-.05.06-.11.1-.16l5.93-.06,2.44-3.63-6.84.11s0-.02,0-.04ZM189.29,166.77l-1.84,2.74-5.06-3.41,1.84-2.74c.7-1.04,1.44-1.66,2.23-1.87s1.58-.05,2.38.49c.79.53,1.23,1.2,1.34,2.02.1.81-.19,1.74-.89,2.78Z"/><path class="cls-3" d="M206.28,144.4c-.57-.8-1.32-1.37-2.24-1.72-.86-.32-1.63-.41-2.33-.27-.69.14-1.32.43-1.87.86-.55.43-1.06.95-1.52,1.55-.46.6-.89,1.21-1.3,1.83-.41.62-.8,1.18-1.17,1.69-.37.5-.74.88-1.13,1.12-.39.25-.79.29-1.21.13-.36-.14-.64-.35-.83-.66-.2-.31-.29-.72-.29-1.26,0-.53.14-1.17.42-1.9.28-.73.66-1.44,1.16-2.13.5-.69,1.11-1.33,1.83-1.93l-2.44-2.25c-.77.58-1.46,1.33-2.08,2.24-.62.91-1.12,1.88-1.5,2.91-.58,1.55-.83,2.92-.75,4.11.08,1.19.41,2.19.99,2.99.58.8,1.34,1.37,2.28,1.72.87.33,1.66.42,2.35.28.69-.14,1.32-.43,1.87-.86.55-.43,1.07-.95,1.54-1.54.47-.6.91-1.21,1.31-1.83.4-.62.79-1.19,1.17-1.69.38-.5.75-.87,1.14-1.12.39-.25.8-.29,1.23-.12.34.13.61.35.79.67.18.32.26.73.24,1.25-.02.52-.18,1.15-.46,1.9-.37.98-.89,1.9-1.57,2.74-.68.84-1.4,1.52-2.16,2.03l2.37,2.36c.84-.52,1.66-1.32,2.46-2.39.8-1.07,1.45-2.26,1.94-3.57.59-1.56.83-2.94.75-4.14-.08-1.2-.41-2.2-.99-3Z"/><path class="cls-3" d="M116.22,224.79c-59.87,0-108.57-48.71-108.57-108.57S56.35,7.65,116.22,7.65s108.57,48.71,108.57,108.57-48.71,108.57-108.57,108.57ZM116.22,10.65C58.01,10.65,10.65,58.01,10.65,116.22s47.36,105.57,105.57,105.57,105.57-47.36,105.57-105.57S174.43,10.65,116.22,10.65Z"/><path class="cls-3" d="M116.22,231.58C52.61,231.58.86,179.83.86,116.22S52.61.86,116.22.86s115.36,51.75,115.36,115.36-51.75,115.36-115.36,115.36ZM116.22,3.86C54.26,3.86,3.86,54.26,3.86,116.22s50.4,112.36,112.36,112.36,112.36-50.4,112.36-112.36S178.18,3.86,116.22,3.86Z"/><path class="cls-3" d="M157.87,169.82c-11.51,8.97-25.96,14.33-41.65,14.33-37.46,0-67.93-30.47-67.93-67.93,0-11.33,2.8-22.01,7.73-31.41-.78-.69-1.54-1.42-2.25-2.18-5.4,10-8.47,21.44-8.47,33.59,0,39.11,31.82,70.93,70.93,70.93,17.86,0,34.19-6.65,46.68-17.59-1.66.14-3.34.23-5.02.26Z"/><path class="cls-3" d="M95.8,51.43c6.45-2.04,13.3-3.14,20.42-3.14,37.46,0,67.93,30.47,67.93,67.93,0,4.42-.44,8.73-1.25,12.92.86,1.13,1.62,2.33,2.29,3.58,1.27-5.3,1.96-10.82,1.96-16.5,0-39.11-31.82-70.93-70.93-70.93-8.18,0-16.03,1.41-23.34,3.97,1.03.68,2.01,1.41,2.93,2.17Z"/><g id="Shoe"><path class="cls-2" d="M77.43,86.24c-16.41-3.46-24.37-12.8-26.37-30.55-.32-2.84-.54-5.7-.81-8.55-.2-2.16.82-3.4,2.81-2.37,8.59,4.42,18.31,4.46,27.26,7.34,10.55,3.39,17.39,10.2,18.68,21.81.52,4.67,1.45,9.33,3.5,13.68,4.26,9.03,10.47,11.96,20.03,9.33,7.14-1.96,7.17-1.98,11.51,4.1,8.98,12.6,20.45,21.94,35.07,27.35,7.48,2.77,12.05,10.79,10.93,18.5-1.24,8.58-6.28,13.29-15.05,14.43-16.3,2.12-31.62-2.23-46.85-7.02-10.92-3.43-21.45-7.86-31.63-13.12-5.53-2.85-11.31-5.11-17.38-6.62-5.56-1.38-8.82-5.09-9.61-10.65-.77-5.44.95-10.16,5.62-13.34,1.46-1,2.17-1.95,2.46-3.73,1.3-7.69,4.05-14.78,9.81-20.59ZM102.65,99.87c.09.11.17.22.26.33-.01-.07,0-.17-.04-.19-.07-.05-.18-.06-.27-.09-1.85-2.74-3.66-5.5-5.56-8.2-.72-1.02-1.68-2.03-3.08-1.15-1.27.8-1.1,2.02-.61,3.29,1.38,3.57,4.91,5.88,9.3,6.01ZM85.18,88.93c-6.52,4.06-8.96,10.29-10.72,17.01-.53,2.01-.16,2.73,2.07,3.14,6.86,1.27,13.09,4.17,18.1,9.05,8.29,8.06,18.13,11.85,29.61,12.09,9.49.2,18.85-.63,28.24-1.99-5.06-6.14-11.22-6.3-17.84-4.32-.95.28-1.92.54-2.83.94-1.82.81-3.55.96-4.32-1.21-.71-2.02.85-2.96,2.47-3.47,3.06-.96,6.16-1.78,9.26-2.67-.96-1.78-2.63-1.28-3.97-1.03-2.43.45-4.81,1.18-7.19,1.88-1.73.51-3.6,1.17-4.43-1.09-.81-2.21.92-3.13,2.64-3.72,2.32-.8,4.69-1.48,7.03-2.21-3.45-1.6-6.38-.14-9.32.87-1.84.63-3.3.5-3.98-1.38-.65-1.79.61-2.8,2.12-3.36,2.14-.79,4.33-1.45,6.49-2.16-.78-2.41-1.93-2.66-4.04-1.86-5.24,1.99-10.7,3.25-16.32,3.66-9.91.72-20.27-2.94-22.47-15.79-.12-.7-.35-1.38-.61-2.39ZM170.52,137.61c-2.97-3.47-6.67-4.36-10.92-3.7-9.96,1.54-19.95,2.54-30.05,2.89-15.25.53-28.75-3.1-39.88-14.15-4.35-4.32-9.98-6.46-16.04-7.33-3.6-.52-6.53,1.35-7.44,4.67-.95,3.45.73,7.23,4.22,8.05,9.31,2.18,17.57,6.88,26.32,10.42,16.32,6.61,32.91,9.21,50.28,4.33,7.67-2.16,15.1-5.7,23.51-5.16ZM92.46,79c.45-11.08-4.47-17.87-14.81-20.96-6.62-1.98-13.63-2-20.43-4.47.51,4.09,1.36,7.56,2.64,10.93,4.32,11.4,11.25,15.72,23.34,14.51,1.71-.17,4.24-.02,4.76-1.35.67-1.71-1.44-3.15-2.65-4.53-3.6-4.14-8.4-6.53-13.92-8.82,11.7-.98,16.61,6.47,21.07,14.69ZM135.93,151.72c.23.4.32.77.48.8,10.1,2.33,20.24,3.96,30.58,1.63,1.74-.39,3.18-1.37,4.36-2.73,2.52-2.91,1.67-5.64-2.1-6.67-2.63-.72-5.19-.21-7.69.57-8.4,2.61-16.77,5.33-25.63,6.39Z"/><path class="cls-1" d="M170.52,137.61c-8.41-.54-15.83,3.01-23.51,5.16-17.38,4.89-33.97,2.28-50.28-4.33-8.74-3.54-17.01-8.24-26.32-10.42-3.5-.82-5.18-4.6-4.22-8.05.92-3.32,3.85-5.19,7.44-4.67,6.06.87,11.7,3.01,16.04,7.33,11.12,11.05,24.63,14.68,39.88,14.15,10.1-.35,20.09-1.34,30.05-2.89,4.25-.66,7.95.23,10.92,3.7Z"/><path class="cls-1" d="M92.46,79c-4.46-8.23-9.37-15.68-21.07-14.69,5.53,2.29,10.32,4.68,13.92,8.82,1.21,1.39,3.32,2.83,2.65,4.53-.52,1.33-3.05,1.18-4.76,1.35-12.09,1.21-19.02-3.11-23.34-14.51-1.28-3.37-2.13-6.84-2.64-10.93,6.8,2.46,13.81,2.49,20.43,4.47,10.33,3.09,15.25,9.88,14.81,20.96Z"/><path class="cls-1" d="M134.35,151.85c8.86-1.06,18.8-3.91,27.2-6.52,2.5-.78,5.06-1.29,7.69-.57,3.77,1.03,4.62,3.77,2.1,6.67-1.18,1.36-2.62,2.33-4.36,2.73-10.34,2.33-20.48.7-30.58-1.63-.32-.09-1.28-.38-2.05-.68Z"/><path class="cls-1" d="M102.65,99.87c-4.4-.13-7.92-2.43-9.3-6.01-.49-1.27-.67-2.49.61-3.29,1.39-.88,2.36.13,3.08,1.15,1.9,2.7,3.72,5.46,5.56,8.2l.05-.05Z"/></g></svg>